<?xml version="1.0"?>
<svg viewBox="0 0 16 16" xmlns="http://www.w3.org/2000/svg" xmlns:svg="http://www.w3.org/2000/svg" version="1.1" xml:space="preserve">
 <g class="layer">
  <title>Layer 1</title>
  <g id="SVGRepo_bgCarrier" stroke-width="0"/>
  <g id="SVGRepo_tracerCarrier" stroke-linecap="round" stroke-linejoin="round"/>
  <g id="SVGRepo_iconCarrier">
   <g id="svg_1">
    <g id="svg_2">
     <path d="m14.84,9.07c-0.53,-3.21 -3.32,-5.66 -6.68,-5.66l-0.42,0c-3.36,0 -6.15,2.46 -6.68,5.66l-1.06,1l0,3.56l15.9,0l0,-3.56l-1.06,-1zm-6.64,0.86l0,-5.66c1.13,0.41 2.15,1.16 2.88,2.13c0.78,1.03 1.21,2.25 1.25,3.53l-4.13,0l0,0zm-0.23,-6.04l-0.01,0.04l-0.01,-0.04l0.02,0zm-4.88,9.25l-2.6,0l0,-2.86l0.5,-0.46c-0.01,0.12 -0.01,0.24 -0.01,0.36l0,0.24l2.11,0l0,2.73l0,0l0,-0.01zm-1.62,-3.21c0.12,-3.2 2.65,-5.79 5.82,-6.02c-1.12,0.46 -2.11,1.23 -2.85,2.2c-0.84,1.11 -1.3,2.43 -1.35,3.82l-1.62,0zm6.24,-5.66l0,5.66l0,0l-4.13,0c0.05,-1.28 0.48,-2.5 1.25,-3.53c0.73,-0.97 1.74,-1.72 2.88,-2.13zm-1.54,8.87l-2.6,0l0,-2.73l2.6,0l0,2.73zm3.08,0l-2.6,0l0,-2.73l2.6,0l0,2.73zm3.08,0l-2.6,0l0,-2.73l2.6,0l0,2.73zm-0.87,-7.03c-0.73,-0.97 -1.73,-1.74 -2.85,-2.2c3.17,0.23 5.7,2.82 5.82,6.02l-1.62,0c-0.05,-1.39 -0.51,-2.71 -1.35,-3.82zm3.95,7.03l-2.6,0l0,-2.73l2.11,0l0,-0.24c0,-0.12 0,-0.24 -0.01,-0.36l0.5,0.46l0,2.86l0,0.01z" id="svg_3"/>
    </g>
   </g>
  </g>
 </g>
</svg>